<?xml version="1.0" standalone="no"?>
<!DOCTYPE svg PUBLIC "-//W3C//DTD SVG 20010904//EN"
 "http://www.w3.org/TR/2001/REC-SVG-20010904/DTD/svg10.dtd">
<svg version="1.0" xmlns="http://www.w3.org/2000/svg"
 width="512.000000pt" height="512.000000pt" viewBox="0 0 512.000000 512.000000"
 preserveAspectRatio="xMidYMid meet">

<g transform="translate(0.000000,512.000000) scale(0.100000,-0.100000)"
fill="#000000" stroke="none">
<path d="M2050 5110 c-291 -34 -567 -135 -812 -299 -831 -555 -1052 -1676
-495 -2508 l74 -111 -159 -159 c-96 -94 -168 -174 -179 -198 -25 -54 -25 -144
0 -193 37 -73 240 -249 436 -378 138 -91 155 -96 195 -56 56 56 42 81 -103
175 -133 88 -202 141 -314 243 -122 111 -123 107 69 301 l152 153 50 -50 50
-50 -107 -108 c-59 -60 -107 -114 -107 -120 0 -65 212 -230 459 -356 323 -165
625 -237 995 -237 196 0 341 18 532 66 652 163 1204 648 1460 1282 39 98 43
142 14 168 -26 24 -76 23 -100 -1 -10 -10 -32 -56 -50 -101 -172 -450 -541
-848 -985 -1063 -198 -96 -384 -153 -598 -185 -125 -18 -400 -21 -527 -5 -335
43 -657 170 -933 368 l-78 56 69 69 70 69 113 -75 c413 -275 916 -369 1396
-261 619 139 1123 592 1322 1190 73 220 86 306 86 579 -1 211 -3 252 -23 344
-58 263 -163 506 -302 696 l-50 70 70 70 c81 81 60 90 175 -80 273 -406 386
-921 310 -1420 -15 -95 -14 -101 3 -125 25 -33 83 -39 110 -12 38 38 68 314
58 532 -19 458 -160 852 -433 1217 -136 182 -138 182 -283 38 l-106 -105 -49
50 -50 51 156 154 c191 190 183 188 287 78 86 -89 219 -265 284 -374 245 -405
354 -853 327 -1329 -51 -887 -615 -1663 -1449 -1994 -136 -53 -339 -107 -500
-133 -141 -21 -499 -25 -635 -5 -179 26 -397 82 -543 141 -68 27 -93 27 -120
-2 -31 -32 -29 -80 3 -105 53 -42 352 -135 532 -165 50 -9 150 -21 222 -28
l132 -12 -3 -151 -3 -151 -380 -5 -380 -5 -57 -28 c-63 -31 -116 -86 -150
-156 -20 -40 -23 -65 -26 -183 -4 -136 -4 -137 22 -163 l25 -25 1206 0 1206 0
26 26 c25 25 25 26 21 162 -4 116 -8 144 -27 183 -32 68 -81 120 -142 154
l-54 30 -385 5 -385 5 -3 170 -2 171 102 23 c821 184 1504 797 1772 1591 138
408 167 847 85 1265 -89 450 -306 868 -624 1203 -77 82 -104 100 -170 109 -96
13 -123 -4 -312 -190 l-171 -169 -114 76 c-204 136 -443 232 -683 277 -125 23
-394 33 -515 19z m475 -165 c119 -21 221 -50 327 -92 l87 -35 -23 -63 c-14
-34 -37 -82 -53 -105 -65 -98 -73 -115 -73 -165 0 -68 32 -132 119 -235 77
-91 111 -146 111 -181 0 -39 -59 -83 -172 -128 -114 -46 -185 -97 -215 -155
-28 -53 -20 -136 27 -279 23 -70 40 -138 38 -150 -3 -20 -8 -22 -71 -20 -88 2
-156 34 -226 108 -77 82 -141 235 -141 340 0 124 -39 233 -107 298 -111 109
-290 136 -645 100 -159 -16 -169 -16 -233 2 -96 26 -170 83 -235 184 -28 41
-28 44 -13 68 9 14 56 60 105 103 258 228 557 367 896 415 121 18 371 13 497
-10z m733 -322 c146 -111 302 -284 400 -446 52 -84 112 -202 112 -219 0 -7
-16 -37 -34 -66 -19 -29 -55 -105 -82 -170 -26 -64 -55 -125 -63 -136 -9 -10
-62 -41 -118 -68 -124 -60 -182 -110 -222 -189 -126 -252 -2 -475 371 -664 62
-32 115 -59 116 -61 22 -18 -186 -334 -271 -412 l-24 -23 -12 48 c-18 75 -105
242 -159 308 -124 152 -297 235 -488 235 -178 0 -296 -59 -368 -182 -14 -24
-43 -95 -66 -158 -85 -239 -139 -269 -347 -189 -176 67 -280 64 -360 -11 -85
-80 -133 -193 -133 -315 0 -41 -3 -75 -8 -75 -14 0 -159 86 -224 133 -356 256
-603 654 -673 1087 -24 151 -22 390 4 544 38 213 124 432 244 620 l51 79 25
-34 c48 -65 147 -154 204 -182 125 -61 182 -66 452 -36 224 24 405 -3 468 -69
36 -38 45 -67 57 -185 12 -129 31 -203 75 -292 97 -200 258 -309 455 -310 107
0 159 24 191 87 29 56 22 128 -24 273 -19 61 -38 122 -41 136 -8 37 20 69 86
98 194 87 211 96 252 142 105 117 85 230 -74 419 -44 52 -83 105 -86 118 -7
25 -2 38 52 122 19 30 44 81 56 112 l20 57 57 -35 c31 -20 89 -61 129 -91z
m614 -983 c20 -92 23 -133 23 -330 0 -192 -4 -239 -21 -320 -32 -141 -63 -240
-77 -240 -19 0 -185 88 -251 133 -86 58 -144 120 -173 184 -24 53 -25 60 -15
117 19 99 49 132 180 197 126 63 181 109 210 178 11 25 34 81 52 124 18 43 36
75 41 70 4 -4 18 -55 31 -113z m-951 -1050 c187 -57 325 -232 384 -483 l14
-59 -31 -27 c-68 -57 -187 -134 -288 -185 -164 -83 -299 -128 -485 -163 -126
-23 -417 -23 -545 0 -99 18 -267 63 -290 77 -10 6 -15 38 -18 103 -5 114 11
174 64 236 31 35 41 41 75 41 23 0 86 -18 147 -41 136 -53 243 -63 315 -31 56
25 128 90 161 145 13 23 40 88 59 144 20 56 45 120 56 142 24 45 75 90 123
108 54 19 187 16 259 -7z m-391 -1870 l0 -160 -105 0 -105 0 0 154 0 155 53 4
c28 2 76 4 105 5 l52 2 0 -160z m916 -335 c56 -33 84 -90 84 -173 l0 -62
-1105 0 -1105 0 0 63 c0 82 30 143 86 174 l39 23 979 0 979 0 43 -25z"/>
<path d="M1255 3780 c-131 -24 -242 -86 -356 -199 -105 -105 -142 -173 -147
-273 -7 -122 32 -173 206 -264 92 -48 152 -99 152 -130 0 -9 -10 -47 -21 -86
-40 -132 -15 -259 71 -352 63 -68 137 -100 230 -101 103 0 171 25 230 85 54
53 71 97 95 240 9 52 23 105 30 117 8 11 38 35 67 51 132 76 194 166 192 282
-2 116 -76 258 -210 400 -122 130 -172 153 -219 105 -44 -43 -34 -65 69 -167
143 -142 225 -284 210 -365 -8 -43 -58 -94 -122 -127 -60 -30 -114 -89 -135
-147 -9 -24 -24 -86 -32 -138 -19 -110 -34 -145 -74 -166 -97 -50 -209 -15
-252 79 -24 53 -24 106 1 184 24 77 25 114 5 174 -23 65 -90 126 -211 193 -58
31 -111 64 -119 72 -44 43 5 155 107 247 83 75 181 123 286 140 89 14 111 29
112 77 0 63 -59 88 -165 69z"/>
</g>
</svg>
