<?xml version="1.0" standalone="no"?>
<!DOCTYPE svg PUBLIC "-//W3C//DTD SVG 20010904//EN"
 "http://www.w3.org/TR/2001/REC-SVG-20010904/DTD/svg10.dtd">
<svg version="1.0" xmlns="http://www.w3.org/2000/svg"
 width="200.000000pt" height="200.000000pt" viewBox="0 0 200.000000 200.000000"
 preserveAspectRatio="xMidYMid meet">

<g transform="translate(0.000000,200.000000) scale(0.100000,-0.100000)"
fill="#000000" stroke="none">
<path d="M52 1947 c-17 -18 -22 -36 -22 -73 0 -65 27 -94 88 -94 l42 0 0 -60
0 -60 -40 0 c-30 0 -47 -7 -65 -25 l-25 -24 0 -611 0 -611 25 -24 c18 -18 35
-25 65 -25 l40 0 0 -60 0 -60 -45 0 c-64 0 -85 -24 -85 -95 0 -42 5 -60 20
-75 19 -19 33 -20 230 -20 197 0 211 1 230 20 15 15 20 33 20 75 0 69 -22 95
-80 95 l-40 0 0 60 c0 60 0 60 30 60 42 0 80 20 86 47 6 23 9 23 133 23 113 0
133 3 172 23 l45 22 35 -20 c30 -17 59 -21 224 -27 217 -7 256 -14 416 -74
193 -72 298 -69 367 11 57 64 57 47 7 711 -25 335 -50 622 -57 637 -12 31 -54
57 -92 57 -43 0 -86 -48 -94 -105 l-7 -50 -150 -5 c-147 -5 -151 -6 -213 -39
l-62 -34 -63 34 -62 34 -297 3 -296 3 -6 23 c-6 26 -44 46 -86 46 -30 0 -30 0
-30 60 l0 60 40 0 c58 0 80 26 80 95 0 42 -5 60 -20 75 -19 19 -33 20 -228 20
-205 0 -209 0 -230 -23z m418 -72 l0 -35 -187 2 c-172 3 -188 5 -191 21 -9 46
-3 47 193 47 l185 0 0 -35z m-130 -155 l0 -60 -60 0 -60 0 0 60 0 60 60 0 60
0 0 -60z m1464 -46 c9 -8 16 -26 16 -38 0 -13 16 -231 35 -486 19 -255 35
-478 35 -496 0 -32 0 -32 -29 -18 -41 20 -111 28 -154 16 -36 -10 -37 -10 -37
16 1 15 18 247 39 515 37 485 40 506 73 507 4 0 14 -7 22 -16z m-1334 -674 l0
-590 -190 0 -190 0 0 590 0 590 190 0 190 0 0 -590z m676 503 c23 -12 56 -34
73 -49 l32 -27 27 26 c63 58 106 71 255 75 l137 4 -1 -34 c0 -18 -17 -249 -38
-513 -41 -519 -41 -523 10 -559 47 -32 129 -14 154 35 13 25 12 27 -12 38 -22
10 -28 9 -45 -9 -35 -37 -78 -20 -78 32 0 48 31 68 104 68 55 0 69 -4 95 -26
76 -64 51 -183 -44 -214 -46 -15 -140 2 -246 44 -147 58 -206 68 -416 75
l-191 6 -44 31 -43 30 -43 -30 c-42 -30 -47 -31 -173 -34 l-129 -4 0 96 0 96
264 0 c307 0 296 -3 296 90 0 60 -15 90 -46 90 -11 0 -14 24 -14 130 0 93 3
130 12 130 39 0 64 76 36 112 -21 26 -241 219 -273 239 -57 36 -96 21 -224
-89 l-51 -44 0 107 0 106 288 -3 c274 -3 289 -4 328 -25z m-360 -115 c52 -39
244 -212 244 -220 0 -5 -112 -8 -250 -8 l-250 0 0 38 c0 34 6 43 82 107 81 69
128 105 139 105 3 0 19 -10 35 -22z m-196 -423 l0 -125 -30 0 -30 0 0 125 0
125 30 0 30 0 0 -125z m130 0 l0 -125 -30 0 -30 0 0 125 0 125 30 0 30 0 0
-125z m120 0 l0 -125 -30 0 -30 0 0 125 0 125 30 0 30 0 0 -125z m130 0 l0
-125 -30 0 -30 0 0 125 0 125 30 0 30 0 0 -125z m60 -215 l0 -30 -250 0 -250
0 0 30 0 30 250 0 250 0 0 -30z m-690 -470 l0 -60 -60 0 -60 0 0 60 0 60 60 0
60 0 0 -60z m130 -155 l0 -35 -187 2 c-172 3 -188 5 -191 21 -9 46 -3 47 193
47 l185 0 0 -35z"/>
<path d="M1160 1310 l0 -30 185 0 185 0 0 30 0 30 -185 0 -185 0 0 -30z"/>
<path d="M1160 1190 l0 -30 185 0 185 0 0 30 0 30 -185 0 -185 0 0 -30z"/>
<path d="M1160 1060 c0 -27 3 -30 30 -30 27 0 30 3 30 30 0 27 -3 30 -30 30
-27 0 -30 -3 -30 -30z"/>
<path d="M1280 1060 c0 -27 3 -30 30 -30 27 0 30 3 30 30 0 27 -3 30 -30 30
-27 0 -30 -3 -30 -30z"/>
<path d="M1240 903 c0 -3 8 -30 17 -60 l17 -53 -31 -33 c-56 -58 -67 -110 -38
-166 23 -45 70 -61 174 -61 l91 0 0 29 0 29 -96 4 c-81 2 -98 6 -110 22 -23
33 -16 55 35 109 38 41 47 56 40 72 -17 44 -15 45 121 45 l130 0 0 35 0 35
-175 0 c-96 0 -175 -3 -175 -7z"/>
<path d="M1410 720 l0 -30 60 0 60 0 0 30 0 30 -60 0 -60 0 0 -30z"/>
</g>
</svg>
