<?xml version="1.0" standalone="no"?>
<!DOCTYPE svg PUBLIC "-//W3C//DTD SVG 20010904//EN"
 "http://www.w3.org/TR/2001/REC-SVG-20010904/DTD/svg10.dtd">
<svg version="1.0" xmlns="http://www.w3.org/2000/svg"
 width="200.000000pt" height="200.000000pt" viewBox="0 0 200.000000 200.000000"
 preserveAspectRatio="xMidYMid meet">

<g transform="translate(0.000000,200.000000) scale(0.100000,-0.100000)"
fill="#000000" stroke="none">
<path d="M1553 1970 c-276 -58 -357 -360 -134 -501 37 -24 45 -35 43 -54 -8
-58 55 -115 126 -115 41 0 95 39 108 79 9 27 19 36 61 50 131 44 213 162 200
287 -14 138 -139 244 -303 258 -33 3 -78 1 -101 -4z m204 -60 c71 -31 108 -64
137 -122 46 -92 28 -186 -49 -261 -45 -44 -140 -83 -161 -66 -19 16 -35 1 -28
-27 14 -54 -20 -94 -80 -94 -52 0 -96 66 -65 97 18 18 3 43 -25 43 -36 0 -121
81 -142 135 -49 129 45 277 200 314 58 14 159 5 213 -19z"/>
<path d="M1462 1785 c-47 -20 -68 -72 -48 -119 15 -36 59 -66 96 -66 27 0 58
16 91 46 l26 24 19 -21 c45 -50 100 -61 150 -30 66 40 61 130 -8 164 -47 23
-87 16 -132 -24 l-33 -29 -19 22 c-20 21 -73 48 -96 48 -7 -1 -28 -7 -46 -15z
m100 -55 l33 -30 -33 -30 c-18 -16 -41 -30 -53 -30 -21 0 -69 41 -69 60 0 19
48 60 69 60 12 0 35 -13 53 -30z m223 5 c14 -13 25 -29 25 -35 0 -20 -49 -60
-73 -60 -13 0 -36 13 -53 31 l-29 30 33 30 c39 35 65 37 97 4z"/>
<path d="M565 1949 c-112 -25 -196 -75 -242 -143 -15 -23 -48 -62 -74 -88 -66
-64 -91 -118 -97 -203 -5 -86 10 -162 47 -235 l27 -55 -23 -69 c-40 -120 -27
-166 47 -166 36 0 38 -2 42 -37 3 -21 1 -40 -4 -41 -37 -15 -77 -70 -137 -191
-106 -212 -106 -211 -106 -456 l0 -210 149 -3 148 -3 -6 43 c-3 24 -12 86 -19
139 l-14 97 28 16 c44 26 69 77 78 156 8 82 17 95 60 85 30 -6 30 -8 33 -73 3
-56 -1 -73 -19 -101 -35 -52 -45 -97 -50 -234 l-5 -127 256 -1 c313 0 287 0
831 0 l445 1 0 555 0 555 -27 11 c-54 21 -156 28 -248 18 -49 -6 -97 -15 -105
-19 -10 -6 -15 -24 -15 -51 0 -43 0 -43 -45 -52 -72 -15 -143 6 -196 57 -45
43 -55 66 -30 66 8 0 28 12 45 26 39 33 56 90 41 143 -11 42 -59 91 -90 91
-12 0 -20 10 -24 34 -7 38 -60 92 -101 102 -20 5 -25 14 -30 52 -22 164 -111
266 -269 308 -57 15 -238 17 -301 3z m290 -41 c4 -4 0 -17 -9 -30 -39 -55 -7
-107 82 -133 45 -14 53 -20 60 -48 5 -19 16 -33 27 -36 16 -3 17 2 12 35 -8
47 -41 79 -94 89 -65 12 -80 41 -45 85 18 22 19 22 53 5 78 -39 127 -107 148
-203 15 -72 16 -69 -34 -91 -25 -11 -45 -24 -45 -30 0 -20 22 -22 56 -6 47 22
98 13 136 -25 23 -23 28 -37 28 -74 0 -25 -2 -46 -5 -46 -3 0 -16 12 -29 26
-17 20 -34 28 -72 31 -66 7 -136 -12 -132 -35 2 -10 11 -16 23 -14 92 15 126
14 145 -3 13 -11 20 -31 20 -52 0 -27 -6 -37 -30 -51 -16 -9 -30 -25 -30 -34
0 -22 19 -23 46 -3 25 19 34 19 34 -2 1 -59 89 -176 160 -213 48 -24 118 -33
170 -21 l43 10 -6 -102 c-18 -313 -178 -606 -436 -799 -55 -42 -69 -48 -112
-48 l-49 0 0 58 c0 31 6 83 14 114 11 47 11 60 0 69 -9 8 -15 6 -22 -8 -16
-30 -32 -120 -32 -178 l0 -55 -231 0 -232 0 5 108 c4 89 9 118 29 158 23 47
26 49 67 50 56 0 83 27 89 88 5 42 7 45 22 33 22 -19 48 -27 66 -21 25 10 17
31 -15 38 -42 8 -56 42 -40 98 25 90 25 105 -8 137 -19 19 -45 33 -70 37 -54
9 -71 29 -83 104 -15 97 -39 129 -94 130 -37 0 -59 -13 -53 -31 3 -9 17 -13
40 -11 46 4 57 -12 69 -95 11 -80 33 -115 80 -126 67 -17 89 -30 95 -53 3 -12
1 -31 -5 -41 -6 -11 -11 -13 -11 -5 0 19 -85 54 -123 50 -52 -5 -41 -31 16
-40 73 -10 77 -16 77 -129 0 -75 -4 -101 -16 -113 -38 -38 -64 -10 -64 69 0
33 -4 66 -9 74 -8 13 -85 39 -117 41 -17 0 -44 -79 -44 -128 0 -51 -19 -100
-50 -127 -17 -16 -36 -20 -86 -20 -53 0 -64 -2 -64 -16 0 -17 27 -29 71 -29
25 0 26 -3 38 -97 7 -54 14 -106 17 -115 5 -16 -5 -18 -105 -18 l-111 0 0 164
c0 90 4 188 10 217 14 79 166 377 203 398 28 16 28 16 84 -42 57 -60 59 -64
41 -136 -1 -8 4 -16 14 -18 21 -5 42 56 33 97 -4 17 -35 62 -72 101 l-65 72 5
49 6 49 -59 -7 c-58 -6 -60 -6 -60 17 0 13 11 59 24 102 l24 78 -29 57 c-62
120 -47 168 56 181 61 7 105 24 105 41 0 5 16 0 35 -11 31 -19 44 -20 135 -14
123 9 150 -2 150 -64 0 -32 -8 -48 -45 -89 -92 -102 -65 -166 78 -186 26 -4
47 -13 48 -19 1 -7 2 -21 3 -31 2 -28 25 -31 35 -5 18 51 -12 82 -89 94 -56 9
-90 29 -90 56 0 11 21 42 46 70 40 41 48 57 52 98 9 98 -41 127 -197 116 -86
-6 -99 -5 -120 12 -35 29 -40 99 -10 152 23 42 21 58 -6 48 -32 -13 -55 -69
-55 -137 0 -77 -9 -90 -62 -90 -21 0 -55 -7 -75 -15 -19 -8 -37 -15 -39 -15
-2 0 -4 17 -4 38 0 53 41 132 89 174 23 20 55 56 70 79 34 53 53 70 110 100
73 37 137 48 268 46 67 -1 124 -5 128 -9z m462 -513 c51 -36 34 -140 -27 -165
-37 -15 -45 -8 -55 50 -4 25 0 50 15 83 22 50 33 56 67 32z m573 -252 l30 -5
0 -524 0 -524 -240 0 -240 0 59 70 c94 112 173 288 119 264 -7 -3 -33 -46 -57
-96 -31 -63 -65 -111 -114 -164 l-69 -74 -121 0 -122 0 35 27 c282 218 440
545 440 909 l0 113 33 5 c17 3 46 8 62 10 33 5 140 -1 185 -11z"/>
<path d="M687 1831 c-23 -39 -22 -86 2 -110 20 -20 79 -41 114 -41 55 0 99
-43 109 -105 2 -11 10 -20 18 -20 11 0 15 10 14 37 -2 72 -47 110 -152 129
-31 6 -63 15 -69 21 -17 14 -16 50 2 74 20 26 19 44 -3 44 -10 0 -25 -13 -35
-29z"/>
<path d="M525 1717 c-18 -48 -10 -88 22 -105 10 -6 57 -15 105 -21 97 -11 140
-29 164 -66 14 -21 15 -41 9 -118 -10 -143 10 -171 129 -186 72 -8 86 -18 86
-63 0 -33 13 -43 30 -23 17 20 5 78 -21 101 -14 12 -43 20 -91 25 -97 9 -101
16 -93 144 5 87 4 104 -13 135 -27 49 -89 78 -191 90 -111 13 -126 26 -96 84
20 37 19 46 -4 46 -14 0 -24 -13 -36 -43z"/>
<path d="M385 1340 c-62 -16 -87 -30 -83 -48 2 -9 7 -16 11 -15 105 32 119 34
149 24 22 -8 35 -8 42 -1 26 26 -60 55 -119 40z"/>
<path d="M416 1263 c-3 -4 -25 -9 -49 -12 -57 -8 -58 -35 -1 -39 44 -3 93 25
80 46 -8 13 -19 15 -30 5z"/>
<path d="M547 1093 c-13 -12 -7 -23 17 -32 23 -9 36 -48 36 -113 0 -37 35 -72
93 -93 68 -24 81 -49 74 -141 -8 -102 3 -129 64 -159 55 -28 65 -50 55 -120
-6 -37 -4 -45 9 -45 20 0 35 40 35 92 0 32 -7 47 -34 74 -19 19 -41 34 -49 34
-32 0 -42 31 -42 131 0 94 -1 99 -29 128 -16 17 -51 38 -77 46 -27 9 -51 20
-54 25 -3 5 -8 36 -12 70 -3 37 -14 71 -25 86 -19 23 -47 31 -61 17z"/>
<path d="M697 1094 c-4 -4 -7 -24 -7 -44 0 -47 22 -67 91 -85 65 -17 81 -33
88 -87 8 -55 34 -60 39 -8 7 69 -41 121 -125 135 -48 8 -57 17 -58 59 0 29
-14 43 -28 30z"/>
<path d="M1020 1073 c0 -10 14 -26 30 -35 43 -24 64 -79 56 -143 -22 -169 -20
-191 14 -225 23 -23 50 -26 50 -7 0 8 -10 22 -21 33 -20 17 -21 25 -14 94 14
139 11 193 -12 230 -21 33 -69 70 -92 70 -6 0 -11 -8 -11 -17z"/>
<path d="M883 1053 c-4 -10 -1 -19 8 -21 8 -3 31 -21 51 -42 48 -48 57 -94 33
-180 -37 -137 -39 -157 -20 -206 18 -48 62 -84 103 -84 30 0 29 28 -2 36 -13
3 -35 17 -48 31 -30 32 -30 100 2 201 36 117 13 202 -68 257 -43 30 -51 30
-59 8z"/>
<path d="M1405 1265 c-14 -13 -25 -33 -25 -45 0 -34 44 -70 85 -70 49 0 90 40
81 78 -15 62 -95 84 -141 37z m95 -30 c16 -20 -3 -45 -35 -45 -32 0 -51 25
-35 45 7 8 23 15 35 15 12 0 28 -7 35 -15z"/>
</g>
</svg>
