<?xml version="1.0" standalone="no"?>
<!DOCTYPE svg PUBLIC "-//W3C//DTD SVG 20010904//EN"
 "http://www.w3.org/TR/2001/REC-SVG-20010904/DTD/svg10.dtd">
<svg version="1.0" xmlns="http://www.w3.org/2000/svg"
 width="225.000000pt" height="225.000000pt" viewBox="0 0 225.000000 225.000000"
 preserveAspectRatio="xMidYMid meet">

<g transform="translate(0.000000,225.000000) scale(0.100000,-0.100000)"
fill="#000000" stroke="none">
<path d="M395 2240 c-24 -10 -134 -115 -158 -150 -27 -39 -22 -94 12 -132 26
-29 36 -33 81 -34 50 0 53 -2 121 -70 l70 -70 -17 -39 c-19 -46 -13 -89 17
-121 20 -21 20 -23 3 -55 -12 -23 -19 -57 -19 -104 -1 -43 -9 -97 -23 -140
-63 -195 -41 -412 60 -583 73 -125 248 -269 376 -309 l52 -17 0 -92 0 -92
-102 -4 c-111 -4 -146 -16 -183 -66 -24 -33 -34 -140 -14 -153 8 -5 228 -9
490 -9 412 0 478 2 489 15 18 21 7 110 -17 143 -42 57 -66 66 -178 70 l-105 4
0 59 0 59 94 0 c114 0 132 6 197 67 38 35 52 44 61 35 28 -28 56 -10 191 126
82 83 137 146 137 158 0 23 -118 144 -140 144 -19 0 -300 -281 -300 -300 0 -7
11 -26 25 -40 l26 -27 -50 -46 -50 -47 -96 0 -95 0 0 73 0 72 285 285 c192
192 285 292 285 306 0 23 -119 144 -141 144 -7 0 -136 -122 -286 -272 l-272
-272 -53 3 c-37 1 -65 -4 -93 -19 -49 -25 -56 -25 -107 1 -67 34 -142 113
-179 187 -38 77 -50 185 -30 269 11 45 15 50 59 65 l47 17 60 -58 c52 -51 71
-62 145 -86 70 -23 94 -36 135 -76 73 -71 93 -68 183 25 90 92 91 105 19 184
-45 49 -56 69 -76 139 l-23 81 -242 240 c-260 258 -266 262 -341 236 l-40 -13
-73 72 c-63 63 -72 75 -67 99 17 76 -77 150 -150 118z m67 -77 c10 -9 18 -20
18 -26 0 -16 -133 -147 -150 -147 -21 0 -40 20 -40 42 0 17 127 148 144 148 5
0 18 -7 28 -17z m146 -300 l-32 -33 -73 72 -73 72 32 33 32 33 73 -72 73 -72
-32 -33z m402 -178 l215 -215 -112 -112 -113 -113 -43 43 -44 43 24 46 c43 85
25 180 -47 254 -69 72 -170 89 -263 45 -30 -15 -40 -16 -52 -6 -8 7 -15 19
-15 28 0 8 41 57 92 108 69 71 98 94 117 94 21 0 72 -46 241 -215z m-192 -82
c69 -51 89 -130 53 -201 -24 -47 -51 -68 -103 -83 -110 -29 -222 83 -190 190
15 50 47 90 86 107 41 19 120 12 154 -13z m456 -250 l16 -47 -62 -64 c-66 -66
-68 -67 -134 -41 l-28 10 94 94 c52 52 95 95 96 95 1 0 9 -21 18 -47z m-616
-97 c31 -11 36 -17 32 -37 -3 -13 -5 -72 -5 -130 0 -104 1 -107 42 -191 47
-94 130 -182 208 -220 l43 -21 -5 -81 c-3 -45 -7 -83 -9 -85 -2 -2 -43 15 -91
39 -101 50 -220 160 -272 252 -85 151 -107 329 -62 496 l12 43 35 -26 c19 -14
51 -32 72 -39z m705 -44 l27 -28 -53 -52 -53 -52 -29 30 -29 30 49 50 c27 28
52 50 55 50 4 0 18 -13 33 -28z m449 -29 l29 -27 -253 -253 -252 -252 -27 32
-28 32 247 248 c136 136 249 247 251 247 3 0 18 -12 33 -27z m105 -415 c13
-12 23 -26 23 -32 0 -6 -46 -58 -103 -114 l-103 -102 -29 30 -29 30 104 105
c58 58 107 105 109 105 3 0 15 -10 28 -22z m-673 -117 l31 -31 3 -195 3 -195
-120 0 -121 0 0 185 c0 204 6 231 58 260 43 24 108 14 146 -24z m322 -524 c51
-59 65 -57 -406 -57 -403 0 -430 1 -430 18 1 21 18 44 45 60 14 9 123 11 393
9 l374 -2 24 -28z"/>
<path d="M713 1503 c-19 -7 -16 -53 3 -60 18 -7 45 6 51 24 4 11 -23 44 -35
42 -4 0 -13 -3 -19 -6z"/>
<path d="M1136 564 c-10 -9 -15 -23 -12 -31 3 -8 6 -17 6 -19 0 -2 11 -4 25
-4 29 0 43 25 28 48 -14 23 -29 25 -47 6z"/>
</g>
</svg>
